<svg width="153" height="108" viewBox="0 0 153 108" fill="none" xmlns="http://www.w3.org/2000/svg">
<g clip-path="url(#clip0_105_788)">
<path d="M47.132 5.7264L35.7053 12.4777L35.9455 12.8861L47.3722 6.13481L47.132 5.7264Z" fill="#1B7299"/>
<path d="M48.5321 6.691L43.2429 18.8826L43.6767 19.0716L48.9659 6.88004L48.5321 6.691Z" fill="#1B7299"/>
<path d="M31.099 15.4561L18.7559 20.3241L18.9291 20.7653L31.2722 15.8973L31.099 15.4561Z" fill="#1B7299"/>
<path d="M33.3445 13.9857L32.9929 14.3029L41.8668 24.184L42.2184 23.8668L33.3445 13.9857Z" fill="#1B7299"/>
<path d="M35.8192 27.4666L22.3796 35.4072L22.6199 35.8156L36.0595 27.875L35.8192 27.4666Z" fill="#1B7299"/>
<path d="M41.0905 25.6628L36.772 38.2327L37.2192 38.3871L41.5377 25.8171L41.0905 25.6628Z" fill="#1B7299"/>
<path d="M16.6769 24.0824L16.2097 24.1565L18.2847 37.2871L18.7519 37.2129L16.6769 24.0824Z" fill="#1B7299"/>
<path d="M20.9939 39.5875L20.9319 40.0575L34.082 41.7996L34.1439 41.3296L20.9939 39.5875Z" fill="#1B7299"/>
<path d="M17.2307 39.9181L4.49683 43.6405L4.62927 44.0956L17.3631 40.3732L17.2307 39.9181Z" fill="#1B7299"/>
<path d="M34.4907 44.6931L26.5098 55.3118L26.8876 55.597L34.8685 44.9784L34.4907 44.6931Z" fill="#1B7299"/>
<path d="M19.567 43.4041L19.1211 43.5624L23.551 56.0933L23.9969 55.935L19.567 43.4041Z" fill="#1B7299"/>
<path d="M14.9321 43.6392L4.23682 63.6056L4.65358 63.8299L15.3489 43.8635L14.9321 43.6392Z" fill="#1B7299"/>
<path d="M25.1347 57.7959L5.40649 65.1846L5.57207 65.6287L25.3003 58.24L25.1347 57.7959Z" fill="#1B7299"/>
<path d="M41.5123 66.7064L23.7302 75.791L23.945 76.2134L41.7271 67.1287L41.5123 66.7064Z" fill="#1B7299"/>
<path d="M38.7875 44.8035L38.322 44.8881L41.769 63.936L42.2344 63.8514L38.7875 44.8035Z" fill="#1B7299"/>
<path d="M51.4115 47.2369L44.4617 63.6463L44.8971 63.8316L51.8469 47.4221L51.4115 47.2369Z" fill="#1B7299"/>
<path d="M43.9095 27.3067L43.4998 27.5436L51.4302 41.3215L51.8399 41.0846L43.9095 27.3067Z" fill="#1B7299"/>
<path d="M42.7193 70.06L42.0898 83.3393L42.5623 83.3618L43.1918 70.0825L42.7193 70.06Z" fill="#1B7299"/>
<path d="M42.1737 86.1431L22.8464 92.2602L22.9883 92.7106L42.3156 86.5935L42.1737 86.1431Z" fill="#1B7299"/>
<path d="M44.3971 89.1175L43.9958 89.3686L51.021 100.645L51.4222 100.394L44.3971 89.1175Z" fill="#1B7299"/>
<path d="M22.6936 75.4785L21.5769 91.5234L22.0488 91.5564L23.1654 75.5115L22.6936 75.4785Z" fill="#1B7299"/>
<path d="M24.5484 58.7864L22.7024 71.9513L23.1708 72.0173L25.0169 58.8524L24.5484 58.7864Z" fill="#1B7299"/>
<path d="M6.31894 66.5341L6.09302 66.9506L17.7467 73.3002L17.9727 72.8836L6.31894 66.5341Z" fill="#1B7299"/>
<path d="M19.827 22.3241L19.7815 22.796L36.0165 24.3685L36.062 23.8966L19.827 22.3241Z" fill="#1B7299"/>
<path d="M51.8445 1.97537C23.395 4.51043 1.13867 26.9528 1.13867 54.27C1.13867 81.5871 23.395 104.036 51.8445 106.556V105.48C24.0279 102.958 2.28182 80.9901 2.28182 54.27C2.28182 27.5498 24.0279 5.58151 51.8445 3.05743V1.97537Z" fill="#1B7299"/>
<path d="M41.5541 67.2306L20.8877 77.103" stroke="#1B7299" stroke-width="0.44"/>
<path d="M4.40625 65.8061L23.5945 58.8967" stroke="#1B7299" stroke-width="0.44"/>
<path d="M21.6082 93.1562L40.5511 87.7876" stroke="#1B7299" stroke-width="0.44"/>
<path d="M37.7392 50.1458C42.095 50.1458 45.623 46.5419 45.623 42.0973C45.623 37.6527 42.0928 34.051 37.7392 34.051C33.3856 34.051 29.8555 37.6527 29.8555 42.0973C29.8555 46.5419 33.3856 50.1458 37.7392 50.1458Z" fill="#BBDAF9"/>
<path d="M48.5749 93.3142C51.2861 90.867 50.9839 86.0954 47.8851 82.6538C44.7863 79.2123 40.0889 78.4046 37.3734 80.8518C34.6579 83.2991 34.9645 88.0707 38.0632 91.5123C41.162 94.9538 45.8594 95.7615 48.5749 93.3142Z" fill="#AFD4F9"/>
<path d="M35.9654 28.7526C38.1553 31.6739 42.9315 31.7815 46.6216 28.994C50.3116 26.2066 51.5227 21.582 49.3284 18.6607C47.134 15.7393 42.36 15.6318 38.6699 18.4192C34.9799 21.2067 33.7688 25.8225 35.9654 28.7526Z" fill="#FFBE00"/>
<path d="M3.35717 48.605C5.67631 49.0155 7.98013 46.9304 8.50571 43.9476C9.0313 40.9648 7.57499 38.2146 5.25585 37.802C2.9367 37.3893 0.632889 39.4788 0.107304 42.4616C-0.418281 45.4445 1.03803 48.1924 3.35717 48.6072" fill="#FF871C"/>
<path d="M15.5397 46.3575C18.3384 47.433 21.7131 45.4247 23.0731 41.8712C24.433 38.3178 23.268 34.5624 20.4693 33.4869C17.6705 32.4114 14.3068 34.4175 12.9337 37.971C11.5606 41.5244 12.7388 45.2798 15.5397 46.3575Z" fill="#75BDF4"/>
<path d="M25.8259 62.7948C28.3597 62.5292 30.1423 59.7066 29.8051 56.4956C29.4678 53.2845 27.1399 50.8965 24.5996 51.1621C22.0593 51.4276 20.2854 54.2502 20.6205 57.4635C20.9555 60.6768 23.2856 63.0626 25.8259 62.7948Z" fill="#009EE3"/>
<path d="M25.7538 82.6714C29.2029 81.4818 30.7906 76.9647 29.2774 72.5882C27.7641 68.2117 23.7566 65.6261 20.2987 66.8157C16.8407 68.0054 15.2618 72.5224 16.775 76.8989C18.2883 81.2754 22.2959 83.861 25.7538 82.6714Z" fill="#F39436"/>
<path d="M29.7832 17.0869C30.9964 18.8275 33.7886 18.9701 36.0158 17.4074C38.2429 15.8447 39.0663 13.1647 37.8509 11.4264C36.6355 9.68809 33.8433 9.54323 31.614 11.106C29.3846 12.6687 28.5678 15.3464 29.7832 17.0869Z" fill="#75BDF4"/>
<path d="M25.2085 97.9937C27.2057 96.7448 27.5276 93.6478 25.9246 91.0799C24.3215 88.5119 21.4067 87.443 19.4095 88.6941C17.4123 89.9451 17.0926 93.0399 18.6934 95.6078C20.2942 98.1758 23.2134 99.2447 25.2085 97.9937Z" fill="#1B7299"/>
<path d="M12.993 25.9234C14.8983 27.3106 17.8809 26.448 19.6592 23.9985C21.4374 21.5491 21.3301 18.4368 19.4249 17.0496C17.5196 15.6625 14.5347 16.5251 12.7587 18.9745C10.9826 21.424 11.0878 24.5363 12.993 25.9234Z" fill="#1B7299"/>
<path d="M51.8445 39.4745C50.8152 40.3787 50.0684 41.8142 49.8932 43.491C49.6611 45.6859 50.4779 47.6876 51.8445 48.7038V39.4745Z" fill="#1B7299"/>
<path d="M44.0396 74.3243C47.4844 73.7142 49.6524 69.6757 48.8837 65.3035C48.1151 60.9314 44.6988 57.8783 41.254 58.4995C37.8092 59.1206 35.639 63.146 36.4077 67.5181C37.1763 71.8903 40.5861 74.9323 44.0396 74.3243Z" fill="#FFBE00"/>
<path d="M6.50627 70.7775C8.7203 69.9719 9.67511 67.0089 8.64146 64.1644C7.60781 61.3198 4.97769 59.6649 2.76366 60.4726C0.549637 61.2803 -0.405176 64.2412 0.628475 67.0857C1.66213 69.9302 4.29443 71.5852 6.50627 70.7775Z" fill="#AEA6D4"/>
<path d="M51.8446 99.0318C49.3831 99.1482 47.3486 100.546 46.9917 102.568C46.5646 105.006 48.7327 107.427 51.8446 108V99.0318Z" fill="#AEA6D4"/>
<path d="M51.8445 0.219487C51.1304 0.0329021 50.3905 -0.0345784 49.6546 0.0197548C46.6412 0.23924 44.3308 2.31118 44.4951 4.66407C44.6593 7.01695 47.2369 8.75747 50.2502 8.54457C50.7923 8.50752 51.3282 8.40659 51.8467 8.24387L51.8445 0.219487Z" fill="#FF871C"/>
<path d="M70.5598 86.1041L93.7315 0.449947H83.8243L66.8654 69.95L69.2152 0.449947H58.8086V86.1041H70.5598ZM107.432 35.8222L102.193 74.9982C101.521 79.4406 96.6858 78.7667 96.6858 78.7667C91.8504 78.7667 92.5249 73.9205 92.5249 73.9205L97.6296 35.8222C98.2975 31.9176 102.999 32.2644 102.999 32.2644C108.373 32.2644 107.432 35.831 107.432 35.831M116.432 33.9456C116.432 33.9456 117.508 24.657 107.298 24.657H100.985C100.985 24.657 90.7094 25.4647 89.4327 33.7459L83.8243 72.6497C83.8243 72.6497 80.8372 86.4465 95.4769 86.4465C95.4769 86.4465 108.836 87.0545 110.522 76.8901L116.432 33.9456ZM153.004 25.1969H143.599L134.806 42.5363L130.838 25.1969H120.595L128.094 55.7493L112.705 86.1041H121.94L131.123 68.1063L135.54 86.1041H144.775L137.701 55.1918L153.004 25.1969Z" fill="#1B7299"/>
<path d="M52.5234 0.237045H51.8445V108H52.5234V0.237045Z" fill="#75BDF4"/>
<path d="M73.4221 101.738C73.3897 102.864 73.0562 103.961 72.4564 104.914C71.8477 105.849 70.9854 106.59 69.9708 107.05C68.8253 107.571 67.578 107.829 66.3202 107.805C64.0616 107.805 62.2834 107.068 60.9855 105.594C59.6876 104.121 59.0386 102.04 59.0386 99.3501V98.4985C59.0038 96.9756 59.3029 95.4637 59.9146 94.0693C60.45 92.8621 61.3311 91.8414 62.4462 91.1369C63.5955 90.434 64.9215 90.0753 66.2676 90.1032C68.3524 90.1032 70.0314 90.6526 71.3044 91.7515C72.5775 92.8504 73.2973 94.3663 73.4637 96.2992H69.3291C69.297 95.2501 69.0335 94.4973 68.5386 94.0407C68.0436 93.5842 67.2881 93.3552 66.272 93.3537C65.2427 93.3537 64.4879 93.74 64.0076 94.5126C63.5273 95.2852 63.2754 96.5194 63.252 98.2153V99.4269C63.252 101.265 63.482 102.577 63.9419 103.364C64.4018 104.152 65.1945 104.546 66.3202 104.548C67.2706 104.548 68.0006 104.323 68.5101 103.874C69.0116 103.435 69.2809 102.71 69.3116 101.731L73.4221 101.738Z" fill="#8AC0F6"/>
<path d="M74.6966 101.053C74.6748 99.8729 74.9299 98.7039 75.4412 97.6403C75.9064 96.6762 76.6504 95.8747 77.5764 95.3401C78.5751 94.7866 79.7028 94.5094 80.8438 94.5368C82.7548 94.5368 84.2615 95.1301 85.3638 96.3168C86.466 97.5035 87.0157 99.1174 87.0128 101.159V101.301C87.0128 103.296 86.4602 104.878 85.355 106.049C84.2498 107.219 82.7534 107.805 80.8656 107.805C79.048 107.805 77.588 107.259 76.4858 106.167C75.3835 105.076 74.79 103.596 74.7054 101.727L74.6966 101.053ZM78.6735 101.301C78.6735 102.485 78.8582 103.352 79.2276 103.902C79.4051 104.172 79.6498 104.39 79.9376 104.536C80.2253 104.681 80.546 104.749 80.8678 104.732C82.284 104.732 83.0081 103.64 83.0403 101.455V101.053C83.0403 98.7604 82.3103 97.6132 80.8503 97.6118C79.5203 97.6118 78.8005 98.6009 78.691 100.579L78.6735 101.301Z" fill="#8AC0F6"/>
<path d="M92.4197 94.7738L92.5489 96.2751C93.4248 95.1162 94.6403 94.5368 96.1951 94.5368C97.5251 94.5368 98.5186 94.9348 99.1756 95.7308C99.8326 96.5268 100.173 97.7252 100.196 99.3259V107.57H96.2104V99.4927C96.2104 98.8453 96.079 98.3712 95.8206 98.0661C95.5622 97.761 95.0892 97.6118 94.4037 97.6118C94.0583 97.5924 93.7141 97.6681 93.4084 97.8306C93.1027 97.993 92.8472 98.2361 92.6693 98.5336V107.57H88.6902V94.7738H92.4197Z" fill="#8AC0F6"/>
<path d="M106.048 94.7738L106.177 96.2751C107.053 95.1162 108.268 94.5368 109.823 94.5368C111.153 94.5368 112.147 94.9348 112.804 95.7308C113.461 96.5268 113.801 97.7252 113.824 99.3259V107.57H109.836V99.4927C109.836 98.8453 109.705 98.3712 109.447 98.0661C109.188 97.761 108.715 97.6118 108.03 97.6118C107.684 97.5924 107.34 97.6681 107.034 97.8306C106.729 97.993 106.473 98.2361 106.295 98.5336V107.57H102.321V94.7738H106.048Z" fill="#8AC0F6"/>
<path d="M122.201 107.805C120.243 107.805 118.658 107.219 117.446 106.049C116.235 104.878 115.629 103.355 115.629 101.479V101.148C115.606 99.9519 115.855 98.7666 116.358 97.682C116.813 96.7109 117.551 95.9011 118.476 95.3598C119.482 94.7907 120.623 94.5062 121.778 94.5368C123.571 94.5368 124.987 95.0943 126.026 96.2092C127.066 97.3242 127.585 98.8796 127.584 100.875V102.425H119.678C119.785 103.08 120.114 103.677 120.611 104.115C121.136 104.542 121.799 104.761 122.474 104.732C123.734 104.732 124.718 104.293 125.424 103.415L127.242 105.568C126.698 106.292 125.97 106.857 125.135 107.205C124.21 107.612 123.21 107.816 122.201 107.805ZM121.763 97.6117C120.595 97.6117 119.903 98.3843 119.687 99.9295H123.699V99.6222C123.714 98.9835 123.554 98.4897 123.215 98.1385C123.021 97.9535 122.791 97.8111 122.539 97.7204C122.287 97.6297 122.019 97.5927 121.752 97.6117H121.763Z" fill="#8AC0F6"/>
<path d="M134.578 104.732C134.814 104.746 135.051 104.713 135.274 104.635C135.497 104.557 135.702 104.434 135.877 104.275C136.034 104.105 136.154 103.905 136.229 103.686C136.304 103.467 136.334 103.235 136.315 103.005H140.038C140.057 103.653 139.934 104.298 139.676 104.894C139.419 105.489 139.034 106.021 138.549 106.45C137.546 107.35 136.254 107.8 134.673 107.798C132.817 107.798 131.357 107.213 130.293 106.042C129.228 104.872 128.693 103.255 128.687 101.194V101.029C128.663 99.8483 128.908 98.6775 129.401 97.6052C129.843 96.6542 130.56 95.8587 131.46 95.3225C132.43 94.7708 133.531 94.4945 134.646 94.5236C136.306 94.5236 137.62 94.9852 138.588 95.9085C139.556 96.8318 140.044 98.0815 140.051 99.6574H136.328C136.328 98.9945 136.167 98.4824 135.844 98.121C135.679 97.9437 135.477 97.8045 135.253 97.7128C135.029 97.6211 134.787 97.5792 134.545 97.5898C133.515 97.5898 132.913 98.2483 132.741 99.5652C132.678 100.138 132.65 100.714 132.658 101.29C132.658 102.577 132.811 103.468 133.118 103.964C133.268 104.213 133.484 104.416 133.741 104.551C133.999 104.687 134.288 104.749 134.578 104.732Z" fill="#8AC0F6"/>
<path d="M146.36 91.5913V94.7738H148.46V97.5415H146.36V103.395C146.36 103.876 146.446 104.209 146.619 104.4C146.792 104.591 147.135 104.684 147.646 104.684C147.978 104.688 148.31 104.664 148.638 104.613V107.467C147.912 107.696 147.156 107.812 146.395 107.809C145.027 107.809 144.016 107.486 143.362 106.841C142.708 106.196 142.382 105.214 142.383 103.896V97.5415H140.756V94.7738H142.383V91.5913H146.36Z" fill="#8AC0F6"/>
</g>
<defs>
<clipPath id="clip0_105_788">
<rect width="153" height="108" fill="white"/>
</clipPath>
</defs>
</svg>